<svg width="256" height="272" xmlns="http://www.w3.org/2000/svg" preserveAspectRatio="xMidYMid">

 <g>
  <title>background</title>
  <rect fill="none" id="canvas_background" height="402" width="582" y="-1" x="-1"/>
 </g>
 <g>
  <title>Layer 1</title>
  <path id="svg_2" fill="#191919" d="m0.099611,45.522179l125.80856,-44.824903l129.195331,44.028016l-20.918288,166.449805l-108.277043,59.965759l-106.583657,-59.168872l-19.224903,-166.449805z"/>
  <path id="svg_3" fill="#000000" d="m255.103502,44.725292l-129.195331,-44.028016l0,270.44358l108.277043,-59.866148l20.918288,-166.549416l0,0z"/>
  <path id="svg_4" fill="#FFFFFF" d="m126.107393,32.27393l0,0l-78.393774,174.418677l29.285603,-0.498054l15.738521,-39.346304l33.469261,0l0.099611,0l36.75642,0l17.232685,39.844358l27.990661,0.498054l-82.178988,-174.916731l0,0zm0.199222,55.881712l26.496498,55.383658l-25.400778,0l-1.294942,0l-23.109728,0l23.30895,-55.383658l0,0z"/>
 </g>
</svg>