<?xml version="1.0" standalone="no"?>
<!DOCTYPE svg PUBLIC "-//W3C//DTD SVG 20010904//EN"
 "http://www.w3.org/TR/2001/REC-SVG-20010904/DTD/svg10.dtd">
<svg version="1.0" xmlns="http://www.w3.org/2000/svg"
 width="128.000000pt" height="128.000000pt" viewBox="0 0 128.000000 128.000000"
 preserveAspectRatio="xMidYMid meet">
<metadata>
Created by potrace 1.16, written by Peter Selinger 2001-2019
</metadata>
<g transform="translate(0.000000,128.000000) scale(0.100000,-0.100000)"
fill="#000000" stroke="none">
<path d="M195 1195 c-50 -18 -100 -71 -114 -122 -15 -53 -15 -814 0 -868 14
-51 73 -110 124 -124 55 -15 815 -15 870 0 51 14 110 73 124 124 15 55 15 815
0 870 -14 51 -73 110 -124 124 -64 17 -829 14 -880 -4z m612 -265 c102 -46
113 -181 21 -253 l-32 -25 36 -15 c49 -21 81 -69 86 -131 5 -65 -15 -115 -59
-148 -57 -42 -91 -48 -285 -48 l-184 0 0 320 0 320 188 0 c163 0 192 -3 229
-20z"/>
<path d="M490 775 l0 -95 119 0 c103 0 122 3 144 20 49 38 43 135 -9 159 -14
6 -75 11 -139 11 l-115 0 0 -95z"/>
<path d="M490 499 l0 -111 135 4 c132 3 135 4 162 31 24 23 28 36 27 78 -1 88
-43 108 -221 109 l-103 0 0 -111z"/>
</g>
</svg>
