<?xml version="1.0" encoding="UTF-8"?>
<svg xmlns="http://www.w3.org/2000/svg" xmlns:xlink="http://www.w3.org/1999/xlink" width="240pt" height="240pt" viewBox="0 0 240 240" version="1.1">
<g id="surface8262150">
<path style=" stroke:none;fill-rule:nonzero;fill:rgb(1.568627%,1.568627%,1.568627%);fill-opacity:1;" d="M 120 240 C 53.726562 240 0 186.273438 0 120 C 0 53.726562 53.726562 0 120 0 C 186.273438 0 240 53.726562 240 120 C 240 186.273438 186.273438 240 120 240 Z M 120 240 "/>
<path style=" stroke:none;fill-rule:nonzero;fill:rgb(21.960784%,55.686275%,23.529412%);fill-opacity:1;" d="M 90.300781 97.121094 L 68.859375 108.988281 C 68.054688 109.429688 67.558594 110.25 67.558594 111.136719 L 67.558594 134.878906 C 67.558594 135.765625 68.054688 136.582031 68.859375 137.03125 L 90.304688 148.902344 C 91.105469 149.34375 92.097656 149.34375 92.898438 148.902344 L 114.339844 137.03125 C 115.136719 136.582031 115.628906 135.765625 115.628906 134.878906 L 115.628906 111.136719 C 115.628906 110.25 115.136719 109.433594 114.332031 108.988281 L 92.894531 97.121094 C 92.492188 96.898438 92.039062 96.789062 91.59375 96.789062 C 91.144531 96.789062 90.699219 96.898438 90.296875 97.121094 M 200.628906 118.496094 L 197.054688 120.472656 C 196.921875 120.546875 196.839844 120.679688 196.839844 120.832031 L 196.839844 124.789062 C 196.839844 124.9375 196.925781 125.074219 197.054688 125.148438 L 200.628906 127.128906 C 200.765625 127.203125 200.925781 127.203125 201.0625 127.128906 L 204.636719 125.148438 C 204.769531 125.074219 204.851562 124.9375 204.851562 124.789062 L 204.851562 120.832031 C 204.851562 120.679688 204.769531 120.546875 204.632812 120.472656 L 201.058594 118.496094 C 200.992188 118.457031 200.917969 118.441406 200.84375 118.441406 C 200.769531 118.441406 200.695312 118.457031 200.628906 118.496094 "/>
<path style=" stroke:none;fill-rule:nonzero;fill:rgb(21.568627%,27.843137%,30.980392%);fill-opacity:1;" d="M 171.351562 71.960938 L 160.910156 66.136719 C 160.582031 65.953125 160.183594 65.957031 159.859375 66.148438 C 159.535156 66.339844 159.335938 66.6875 159.335938 67.0625 L 159.328125 102.25 L 149.703125 96.921875 C 149.300781 96.699219 148.851562 96.589844 148.40625 96.589844 C 147.960938 96.589844 147.507812 96.699219 147.105469 96.921875 L 147.109375 96.921875 L 125.667969 108.785156 C 124.863281 109.226562 124.371094 110.050781 124.371094 110.933594 L 124.371094 134.675781 C 124.371094 135.5625 124.863281 136.378906 125.667969 136.824219 L 147.117188 148.699219 C 147.914062 149.140625 148.90625 149.140625 149.707031 148.699219 L 171.152344 136.824219 C 171.945312 136.382812 172.441406 135.5625 172.441406 134.675781 L 172.441406 73.8125 C 172.441406 73.042969 172.019531 72.335938 171.351562 71.960938 Z M 158.742188 129.179688 L 149 134.578125 C 148.636719 134.777344 148.1875 134.777344 147.824219 134.578125 L 138.074219 129.179688 C 137.703125 128.980469 137.480469 128.605469 137.480469 128.203125 L 137.480469 117.410156 C 137.480469 117.007812 137.703125 116.636719 138.070312 116.429688 L 147.820312 111.035156 L 147.816406 111.035156 C 148 110.9375 148.199219 110.886719 148.40625 110.886719 C 148.609375 110.886719 148.8125 110.941406 148.996094 111.035156 L 158.738281 116.429688 C 159.105469 116.636719 159.328125 117.011719 159.328125 117.414062 L 159.328125 128.207031 C 159.328125 128.605469 159.105469 128.980469 158.742188 129.179688 Z M 158.742188 129.179688 "/>
<path style=" stroke:none;fill-rule:nonzero;fill:rgb(18.039216%,49.019608%,19.607843%);fill-opacity:1;" d="M 90.300781 97.121094 L 67.558594 134.878906 C 67.558594 135.765625 68.054688 136.582031 68.859375 137.03125 L 90.304688 148.902344 C 91.105469 149.34375 92.097656 149.34375 92.898438 148.902344 L 115.628906 111.136719 C 115.628906 110.25 115.136719 109.433594 114.332031 108.988281 L 92.894531 97.121094 C 92.492188 96.898438 92.039062 96.789062 91.59375 96.789062 C 91.144531 96.789062 90.699219 96.898438 90.296875 97.121094 "/>
<path style=" stroke:none;fill-rule:nonzero;fill:rgb(29.803922%,68.627451%,31.372549%);fill-opacity:1;" d="M 90.300781 97.121094 L 68.859375 108.988281 C 68.054688 109.429688 67.558594 110.25 67.558594 111.136719 L 90.300781 148.902344 C 91.101562 149.34375 92.09375 149.34375 92.894531 148.902344 L 114.335938 137.03125 C 115.136719 136.582031 115.628906 135.765625 115.628906 134.878906 L 92.894531 97.121094 C 92.492188 96.898438 92.039062 96.789062 91.59375 96.789062 C 91.144531 96.789062 90.699219 96.898438 90.296875 97.121094 "/>
<path style=" stroke:none;fill-rule:nonzero;fill:rgb(21.568627%,27.843137%,30.980392%);fill-opacity:1;" d="M 223.582031 108.785156 L 202.140625 96.921875 C 201.738281 96.699219 201.289062 96.589844 200.84375 96.589844 C 200.398438 96.589844 199.949219 96.699219 199.546875 96.921875 L 199.550781 96.921875 L 178.105469 108.785156 C 177.308594 109.226562 176.808594 110.066406 176.808594 110.984375 L 176.808594 134.628906 C 176.808594 135.542969 177.308594 136.386719 178.105469 136.828125 L 199.554688 148.703125 C 200.359375 149.148438 201.34375 149.148438 202.148438 148.703125 L 212.035156 143.226562 C 212.941406 142.722656 212.9375 141.425781 212.027344 140.925781 L 190.507812 129.183594 C 190.148438 128.980469 189.917969 128.601562 189.917969 128.1875 L 189.917969 117.414062 C 189.917969 117.011719 190.136719 116.640625 190.488281 116.445312 L 200.253906 111.046875 L 200.25 111.046875 C 200.433594 110.945312 200.632812 110.898438 200.839844 110.898438 C 201.046875 110.898438 201.246094 110.949219 201.429688 111.046875 L 211.195312 116.453125 C 211.546875 116.644531 211.765625 117.015625 211.765625 117.417969 L 211.765625 126.210938 C 211.765625 126.585938 211.964844 126.933594 212.292969 127.121094 C 212.621094 127.304688 213.023438 127.304688 213.351562 127.117188 L 223.832031 121.03125 C 224.476562 120.65625 224.878906 119.960938 224.878906 119.207031 L 224.878906 110.992188 C 224.878906 110.070312 224.382812 109.226562 223.582031 108.785156 Z M 61.894531 108.785156 L 40.453125 96.921875 C 40.050781 96.699219 39.601562 96.589844 39.15625 96.589844 C 38.710938 96.589844 38.261719 96.699219 37.859375 96.921875 L 37.863281 96.921875 L 16.417969 108.785156 C 15.617188 109.226562 15.121094 110.066406 15.121094 110.984375 L 15.121094 143.605469 C 15.121094 143.980469 15.320312 144.332031 15.648438 144.519531 C 15.976562 144.703125 16.378906 144.703125 16.707031 144.515625 L 27.1875 138.429688 C 27.832031 138.050781 28.230469 137.355469 28.230469 136.605469 L 28.230469 117.410156 C 28.230469 117.007812 28.449219 116.636719 28.796875 116.441406 L 38.566406 111.042969 C 38.75 110.941406 38.949219 110.894531 39.15625 110.894531 C 39.359375 110.894531 39.5625 110.945312 39.746094 111.042969 L 49.511719 116.445312 C 49.863281 116.640625 50.082031 117.011719 50.082031 117.414062 L 50.082031 136.609375 C 50.082031 137.363281 50.476562 138.054688 51.128906 138.433594 L 61.609375 144.519531 C 61.9375 144.707031 62.339844 144.707031 62.667969 144.523438 C 62.988281 144.332031 63.191406 143.980469 63.191406 143.605469 L 63.191406 110.988281 C 63.191406 110.070312 62.691406 109.226562 61.890625 108.785156 Z M 61.894531 108.785156 "/>
</g>
</svg>
