<svg width="256" height="290" xmlns="http://www.w3.org/2000/svg" preserveAspectRatio="xMidYMid">

 <g>
  <title>background</title>
  <rect fill="none" id="canvas_background" height="402" width="582" y="-1" x="-1"/>
 </g>
 <g>
  <title>Layer 1</title>
  <polygon id="svg_2" points="128 0.0483018868 256 72.4528302 256 217.310189 128 289.714717 0 217.310189 0 72.4528302" fill="#FFFFFF"/>
  <path id="svg_3" fill="#000000" d="m233.15321,212.28679l-100.90264,57.14114l0,-44.43774l62.88905,-34.63245l38.01359,21.92905zm6.90717,-6.23094l0,-119.40227l-36.90264,21.30114l0,76.8l36.90264,21.30113zm-217.6,6.23094l100.90264,57.09283l0,-44.43773l-62.88906,-34.58415l-38.01358,21.92905l0,0zm-6.90717,-6.23094l0,-119.40227l36.90264,21.30114l0,76.8l-36.90264,21.30113l0,0zm4.29887,-127.13057l103.51094,-58.54188l0,42.98868l-66.31849,36.46792l-0.53132,0.28981l-36.66113,-21.20453l0,0zm215.86113,0l-103.46264,-58.54188l0,42.98868l66.27019,36.51622l0.53132,0.28981l36.66113,-21.25283l0,0z"/>
  <path id="svg_4" fill="#000000" d="m123.36302,214.84679l-62.01962,-34.14943l0,-67.57434l62.01962,35.7917l0,65.93207l0,0zm8.88755,0l62.01962,-34.10113l0,-67.62264l-62.01962,35.7917l0,65.93207zm-66.75321,-109.54868l62.30943,-34.24603l62.26114,34.24603l-62.26114,35.93661l-62.30943,-35.93661l0,0z"/>
 </g>
</svg>